<svg xmlns="http://www.w3.org/2000/svg" width="113" height="17.676" viewBox="0 0 113 17.676">
  <g id="Group_7810" data-name="Group 7810" transform="translate(-559 -8031)">
    <g id="Group_7811" data-name="Group 7811" transform="translate(590.732 8035.446)">
      <path id="Path_119" data-name="Path 119" d="M-943.4,41h-2.33V34.631h-2.984V33.265h8.3v1.366H-943.4Z" transform="translate(948.71 -33.143)"/>
      <path id="Path_120" data-name="Path 120" d="M-897.693,36.752a3.5,3.5,0,0,1-1.353,2.955,6.3,6.3,0,0,1-3.879,1.032,6.3,6.3,0,0,1-3.879-1.032,3.506,3.506,0,0,1-1.353-2.965A3.466,3.466,0,0,1-906.8,33.79a6.389,6.389,0,0,1,3.89-1.019,6.279,6.279,0,0,1,3.875,1.028A3.5,3.5,0,0,1-897.693,36.752Zm-8.021,0a2.554,2.554,0,0,0,.7,1.954,2.952,2.952,0,0,0,2.09.656q2.789,0,2.789-2.61t-2.774-2.614a2.976,2.976,0,0,0-2.1.659A2.548,2.548,0,0,0-905.714,36.752Z" transform="translate(918.168 -32.771)"/>
      <path id="Path_121" data-name="Path 121" d="M-849.225,38.034V41h-2.33V33.265h3.2a7.314,7.314,0,0,1,3.315.575,1.862,1.862,0,0,1,1.075,1.744A1.67,1.67,0,0,1-844.5,36.8a3.6,3.6,0,0,1-1.511.834q2.481,2.611,3.232,3.372h-2.586l-2.623-2.97Zm0-1.334h.752a3.872,3.872,0,0,0,1.631-.259.856.856,0,0,0,.526-.815.8.8,0,0,0-.537-.784,4.444,4.444,0,0,0-1.665-.233h-.707Z" transform="translate(875.539 -33.143)"/>
      <path id="Path_122" data-name="Path 122" d="M-796.3,36.752a3.5,3.5,0,0,1-1.353,2.955,6.3,6.3,0,0,1-3.878,1.032,6.3,6.3,0,0,1-3.879-1.032,3.506,3.506,0,0,1-1.353-2.965,3.466,3.466,0,0,1,1.357-2.952,6.388,6.388,0,0,1,3.89-1.019,6.279,6.279,0,0,1,3.875,1.028A3.5,3.5,0,0,1-796.3,36.752Zm-8.021,0a2.553,2.553,0,0,0,.7,1.954,2.952,2.952,0,0,0,2.09.656q2.789,0,2.789-2.61t-2.774-2.614a2.975,2.975,0,0,0-2.1.659A2.547,2.547,0,0,0-804.319,36.752Z" transform="translate(841.803 -32.771)"/>
      <path id="Path_123" data-name="Path 123" d="M-753.266,33.265h3.42a8.973,8.973,0,0,1,3.394.469,1.557,1.557,0,0,1,1.056,1.49,1.508,1.508,0,0,1-.463,1.138,2.06,2.06,0,0,1-1.229.535v.053a2.747,2.747,0,0,1,1.507.614,1.592,1.592,0,0,1,.462,1.2,1.821,1.821,0,0,1-1.086,1.651,6.187,6.187,0,0,1-2.951.593h-4.112Zm2.33,3.065h1.353a3.342,3.342,0,0,0,1.372-.207.7.7,0,0,0,.425-.682.659.659,0,0,0-.462-.638,4.055,4.055,0,0,0-1.462-.194h-1.225Zm0,1.3v2.017h1.519a2.98,2.98,0,0,0,1.421-.26.851.851,0,0,0,.458-.793q0-.963-1.954-.964Z" transform="translate(801.513 -33.143)"/>
      <path id="Path_124" data-name="Path 124" d="M-699.761,36.752a3.5,3.5,0,0,1-1.353,2.955,6.3,6.3,0,0,1-3.878,1.032,6.3,6.3,0,0,1-3.879-1.032,3.506,3.506,0,0,1-1.353-2.965,3.466,3.466,0,0,1,1.357-2.952,6.388,6.388,0,0,1,3.89-1.019A6.279,6.279,0,0,1-701.1,33.8,3.5,3.5,0,0,1-699.761,36.752Zm-8.021,0a2.554,2.554,0,0,0,.7,1.954,2.953,2.953,0,0,0,2.09.656q2.789,0,2.789-2.61t-2.774-2.614a2.975,2.975,0,0,0-2.1.659A2.547,2.547,0,0,0-707.782,36.752Z" transform="translate(769.097 -32.771)"/>
      <path id="Path_125" data-name="Path 125" d="M-650.828,41h-2.661l-2.556-2.928L-658.6,41h-2.5l3.646-3.991-3.413-3.748h2.571l2.368,2.785,2.323-2.785h2.51l-3.45,3.838Z" transform="translate(732.096 -33.143)"/>
    </g>
    <g id="Group_7812" data-name="Group 7812" transform="translate(559 8031)">
      <g id="Group_33" data-name="Group 33" transform="translate(0 0)">
        <path id="Path_79" data-name="Path 79" d="M-1049.234,32.259l-2.677-1.028-3.847-9.342-6.91-3.223,5.777-4.082-1.411,3.129,8.173,2.3Z" transform="translate(1062.667 -14.583)"/>
        <path id="Path_80" data-name="Path 80" d="M-1013.446,32.259l2.677-1.028,3.847-9.342,6.91-3.223-5.777-4.082,1.411,3.129-8.173,2.3Z" transform="translate(1027.434 -14.583)"/>
      </g>
    </g>
  </g>
</svg>
