<svg xmlns="http://www.w3.org/2000/svg" width="146.235" height="14.336" viewBox="0 0 146.235 14.336">
  <g id="Group_107" data-name="Group 107" transform="translate(0)">
    <path id="Path_119" data-name="Path 119" d="M-939.147,47.191h-4.193V35.723h-5.37V33.265h14.933v2.458h-5.37Z" transform="translate(948.71 -33.045)"/>
    <path id="Path_120" data-name="Path 120" d="M-889.329,39.934a6.289,6.289,0,0,1-2.435,5.317q-2.435,1.856-6.979,1.857t-6.98-1.857a6.309,6.309,0,0,1-2.435-5.334,6.237,6.237,0,0,1,2.441-5.311q2.441-1.833,7-1.834t6.973,1.849A6.289,6.289,0,0,1-889.329,39.934Zm-14.433,0a4.6,4.6,0,0,0,1.258,3.515,5.312,5.312,0,0,0,3.761,1.181q5.018,0,5.018-4.7t-4.992-4.7a5.354,5.354,0,0,0-3.774,1.185A4.584,4.584,0,0,0-903.761,39.934Z" transform="translate(926.171 -32.771)"/>
    <path id="Path_121" data-name="Path 121" d="M-847.362,41.847v5.345h-4.193V33.265h5.762a13.161,13.161,0,0,1,5.965,1.034,3.351,3.351,0,0,1,1.934,3.138,3,3,0,0,1-.96,2.186,6.484,6.484,0,0,1-2.719,1.5q4.464,4.7,5.816,6.068h-4.653l-4.72-5.345Zm0-2.4h1.353a6.967,6.967,0,0,0,2.935-.466,1.54,1.54,0,0,0,.947-1.467,1.444,1.444,0,0,0-.967-1.41,8,8,0,0,0-3-.419h-1.272Z" transform="translate(894.711 -33.045)"/>
    <path id="Path_122" data-name="Path 122" d="M-787.934,39.934a6.289,6.289,0,0,1-2.435,5.317q-2.435,1.856-6.979,1.857t-6.98-1.857a6.309,6.309,0,0,1-2.435-5.334,6.237,6.237,0,0,1,2.441-5.311q2.441-1.833,7-1.834t6.973,1.849A6.29,6.29,0,0,1-787.934,39.934Zm-14.433,0a4.6,4.6,0,0,0,1.258,3.515,5.312,5.312,0,0,0,3.761,1.181q5.018,0,5.018-4.7t-4.991-4.7a5.354,5.354,0,0,0-3.774,1.185A4.584,4.584,0,0,0-802.367,39.934Z" transform="translate(869.815 -32.771)"/>
    <path id="Path_123" data-name="Path 123" d="M-753.266,33.265h6.155a16.146,16.146,0,0,1,6.107.844,2.8,2.8,0,0,1,1.9,2.681,2.714,2.714,0,0,1-.832,2.047,3.708,3.708,0,0,1-2.211.963v.1a4.943,4.943,0,0,1,2.711,1.1,2.865,2.865,0,0,1,.832,2.153,3.277,3.277,0,0,1-1.954,2.972,11.133,11.133,0,0,1-5.31,1.067h-7.4Zm4.193,5.516h2.435a6.014,6.014,0,0,0,2.469-.372,1.267,1.267,0,0,0,.764-1.228,1.185,1.185,0,0,0-.831-1.148,7.3,7.3,0,0,0-2.631-.348h-2.205Zm0,2.342v3.63h2.733a5.362,5.362,0,0,0,2.556-.467,1.532,1.532,0,0,0,.825-1.428q0-1.734-3.517-1.735Z" transform="translate(840.082 -33.045)"/>
    <path id="Path_124" data-name="Path 124" d="M-691.4,39.934a6.29,6.29,0,0,1-2.435,5.317q-2.434,1.856-6.979,1.857t-6.98-1.857a6.309,6.309,0,0,1-2.435-5.334,6.237,6.237,0,0,1,2.441-5.311q2.441-1.833,7-1.834t6.973,1.849A6.29,6.29,0,0,1-691.4,39.934Zm-14.433,0a4.6,4.6,0,0,0,1.258,3.515,5.313,5.313,0,0,0,3.761,1.181q5.018,0,5.018-4.7t-4.991-4.7a5.354,5.354,0,0,0-3.774,1.185A4.584,4.584,0,0,0-705.83,39.934Z" transform="translate(816.16 -32.771)"/>
    <path id="Path_125" data-name="Path 125" d="M-642.619,47.191h-4.788l-4.6-5.268-4.6,5.268H-661.1l6.56-7.182-6.142-6.744h4.626l4.26,5.011,4.18-5.011h4.517L-649.3,40.17Z" transform="translate(788.854 -33.045)"/>
  </g>
</svg>
