<svg xmlns="http://www.w3.org/2000/svg" xmlns:xlink="http://www.w3.org/1999/xlink" width="198.73" height="255.692" viewBox="0 0 198.73 255.692">
  <defs>
    <clipPath id="clip-path">
      <rect id="Rectangle_1864" data-name="Rectangle 1864" width="198.73" height="255.692" fill="none"/>
    </clipPath>
  </defs>
  <g id="Group_9112" data-name="Group 9112" style="isolation: isolate">
    <g id="Group_9120" data-name="Group 9120">
      <g id="Group_9119" data-name="Group 9119" clip-path="url(#clip-path)">
        <path id="Path_14928" data-name="Path 14928" d="M75.025,370.256l-.4,141.428L1.413,554.036l.4-141.428Z" transform="translate(-0.428 -369.688)" fill="#c5c5c5"/>
        <path id="Path_14929" data-name="Path 14929" d="M229.975,441.033l-.4,141.428L106.424,511.685l.4-141.428Z" transform="translate(-32.23 -369.688)" fill="#898989"/>
        <path id="Path_14930" data-name="Path 14930" d="M124.964,502.059l-.4,141.428L1.413,572.71l.4-141.428Z" transform="translate(-0.428 -388.363)" fill="#898989"/>
        <path id="Path_14931" data-name="Path 14931" d="M251.669,472.242l-.4,141.429-73.209,42.351.4-141.428Z" transform="translate(-53.924 -400.897)" fill="#c5c5c5"/>
        <path id="Path_14932" data-name="Path 14932" d="M74.768,369.438l124.137,71.345L124.714,483.7.578,412.357Zm49.943,113.7,73.209-42.351L74.772,370.006,1.563,412.357l123.148,70.777" transform="translate(-0.175 -369.438)" fill="#dcdcdc"/>
        <path id="Path_14933" data-name="Path 14933" d="M198.348,441.033l-73.209,42.351L1.991,412.607,75.2,370.256Z" transform="translate(-0.603 -369.688)" fill="#dcdcdc"/>
        <path id="Path_14934" data-name="Path 14934" d="M124.539,502.627l-.4,141.428L0,572.711.4,431.282Z" transform="translate(0 -388.363)" fill="#898989"/>
        <path id="Path_14935" data-name="Path 14935" d="M252.655,472.242l-.4,141.429-74.19,42.919.4-141.428Z" transform="translate(-53.925 -400.897)" fill="#c5c5c5"/>
      </g>
    </g>
  </g>
</svg>
