<?xml version="1.0" encoding="UTF-8"?><svg id="Layer_2" xmlns="http://www.w3.org/2000/svg" viewBox="0 0 178.3 184.73"><defs><style>.cls-1{fill:#dcdcdc;}.cls-1,.cls-2,.cls-3{stroke-width:0px;}.cls-2{fill:#898989;}.cls-4{isolation:isolate;}.cls-3{fill:#c5c5c5;}</style></defs><g id="Layer_1-2"><g class="cls-4"><polygon class="cls-2" points="176.89 41.37 176.66 122.88 106.43 82.33 106.66 .82 176.89 41.37"/><polygon class="cls-3" points="106.66 .82 106.43 82.33 1.41 143.36 1.64 61.85 106.66 .82"/><polygon class="cls-2" points="71.87 102.4 71.64 183.91 1.41 143.36 1.64 61.85 71.87 102.4"/><polygon class="cls-3" points="176.89 41.37 176.66 122.88 71.64 183.91 71.87 102.4 176.89 41.37"/><path class="cls-1" d="m106.66,0l71.65,41.37-106.43,61.85L.23,61.85,106.66,0Zm-34.78,102.4l105.02-61.03L106.66.82,1.64,61.85l70.23,40.55"/><polygon class="cls-1" points="176.89 41.37 71.87 102.4 1.64 61.85 106.66 .82 176.89 41.37"/><polygon class="cls-2" points="71.88 103.21 71.65 184.73 0 143.36 .23 61.85 71.88 103.21"/><polygon class="cls-3" points="178.3 41.37 178.07 122.88 71.65 184.73 71.88 103.21 178.3 41.37"/></g></g></svg>