<?xml version="1.0" encoding="UTF-8"?><svg id="Layer_2" xmlns="http://www.w3.org/2000/svg" viewBox="0 0 390.79 429.88"><defs><style>.cls-1{fill:#dcdcdc;}.cls-1,.cls-2,.cls-3{stroke-width:0px;}.cls-2{fill:#898989;}.cls-4{isolation:isolate;}.cls-3{fill:#c5c5c5;}</style></defs><g id="Layer_1-2"><g class="cls-4"><polygon class="cls-2" points="389.37 102.81 388.79 306.6 212.15 204.61 212.72 .82 389.37 102.81"/><polygon class="cls-3" points="212.72 .82 212.15 204.61 1.41 327.08 1.99 123.29 212.72 .82"/><polygon class="cls-2" points="178.63 225.27 178.06 429.06 1.41 327.08 1.99 123.29 178.63 225.27"/><polygon class="cls-3" points="389.37 102.81 388.79 306.6 178.06 429.06 178.63 225.27 389.37 102.81"/><polygon class="cls-1" points="389.37 102.81 178.63 225.27 1.99 123.29 212.72 .82 389.37 102.81"/><polygon class="cls-2" points="178.64 226.09 178.06 429.88 0 327.08 .58 123.29 178.64 226.09"/><polygon class="cls-3" points="390.79 102.8 390.21 306.59 178.06 429.88 178.64 226.09 390.79 102.8"/><path class="cls-1" d="m212.72,0l178.06,102.8-212.15,123.29L.58,123.29,212.72,0Zm-34.09,225.27l210.73-122.46L212.72.82,1.99,123.29l176.64,101.99"/></g></g></svg>