<svg xmlns="http://www.w3.org/2000/svg" xmlns:xlink="http://www.w3.org/1999/xlink" width="272.439" height="298.332" viewBox="0 0 272.439 298.332">
  <defs>
    <clipPath id="clip-path">
      <rect id="Rectangle_1863" data-name="Rectangle 1863" width="272.439" height="298.332" fill="none"/>
    </clipPath>
  </defs>
  <g id="Group_9111" data-name="Group 9111" style="isolation: isolate">
    <g id="Group_9117" data-name="Group 9117">
      <g id="Group_9116" data-name="Group 9116" clip-path="url(#clip-path)">
        <path id="Path_14920" data-name="Path 14920" d="M442.124,317.75l-.4,141.428L318.573,388.4l.4-141.429Z" transform="translate(-170.674 -246.403)" fill="#898989"/>
        <path id="Path_14921" data-name="Path 14921" d="M255.156,246.974l-.4,141.429L107.841,473.391l.4-141.428Z" transform="translate(-106.855 -246.403)" fill="#c5c5c5"/>
        <path id="Path_14922" data-name="Path 14922" d="M231.391,440.215l-.4,141.428L107.84,510.866l.4-141.428Z" transform="translate(-106.855 -283.879)" fill="#898989"/>
        <path id="Path_14923" data-name="Path 14923" d="M431.8,348.959l-.4,141.428L284.484,575.376l.4-141.429Z" transform="translate(-160.351 -277.612)" fill="#c5c5c5"/>
        <path id="Path_14924" data-name="Path 14924" d="M254.9,246.152,379.041,317.5l-147.9,85.559L107,331.711ZM231.138,402.488,378.052,317.5,254.9,246.722,107.99,331.711l123.148,70.777" transform="translate(-106.602 -246.152)" fill="#dcdcdc"/>
        <path id="Path_14925" data-name="Path 14925" d="M378.479,317.75,231.566,402.739,108.417,331.963l146.913-84.989Z" transform="translate(-107.03 -246.403)" fill="#dcdcdc"/>
        <path id="Path_14926" data-name="Path 14926" d="M230.967,440.783l-.4,141.429L106.428,510.867l.4-141.428Z" transform="translate(-106.427 -283.879)" fill="#898989"/>
        <path id="Path_14927" data-name="Path 14927" d="M432.791,348.956l-.4,141.429-147.9,85.559.4-141.429Z" transform="translate(-160.352 -277.611)" fill="#c5c5c5"/>
      </g>
    </g>
  </g>
</svg>
