<?xml version="1.0" encoding="UTF-8"?><svg id="Layer_2" xmlns="http://www.w3.org/2000/svg" viewBox="0 0 603.84 552.75"><defs><style>.cls-1{fill:#dcdcdc;}.cls-1,.cls-2,.cls-3{stroke-width:0px;}.cls-2{fill:#898989;}.cls-4{isolation:isolate;}.cls-3{fill:#c5c5c5;}</style></defs><g id="Layer_1-2"><g class="cls-4"><polygon class="cls-3" points="177.49 .82 176.91 204.61 1.41 306.6 1.99 102.81 177.49 .82"/><polygon class="cls-2" points="602.42 246.16 601.85 449.95 176.91 204.61 177.49 .82 602.42 246.16"/><polygon class="cls-2" points="426.93 348.14 426.35 551.93 1.41 306.6 1.99 102.81 426.93 348.14"/><polygon class="cls-3" points="602.42 246.16 601.85 449.95 426.35 551.93 426.93 348.14 602.42 246.16"/><polygon class="cls-1" points="602.42 246.16 426.93 348.14 1.99 102.81 177.49 .82 602.42 246.16"/><polygon class="cls-2" points="426.93 348.96 426.36 552.75 0 306.6 .58 102.81 426.93 348.96"/><polygon class="cls-3" points="603.84 246.16 603.26 449.95 426.36 552.75 426.93 348.96 603.84 246.16"/><path class="cls-1" d="m177.48,0l426.36,246.16-176.9,102.81L.58,102.81,177.48,0Zm249.45,348.14l175.5-101.99L177.49.82,1.99,102.81l424.94,245.34"/></g></g></svg>